<svg version="1.2" baseProfile="tiny-ps" xmlns="http://www.w3.org/2000/svg" viewBox="0 0 1572 1573" width="1572" height="1573">
	<title>Dell_logo_2016-svg</title>
	<style>
		tspan { white-space:pre }
		.shp0 { fill: #007db8 } 
	</style>
	<path id="Layer" fill-rule="evenodd" class="shp0" d="M786 0C1216.55 0 1572 350.45 1572 786C1572 1221.56 1221.55 1572 786 1572C350.45 1572 0 1216.56 0 786C0 355.45 355.45 0 786 0ZM785.99 80.19C737.17 80.19 689.55 85.09 643.57 94.48C597.57 103.86 553.18 117.71 510.93 135.54C468.71 153.38 428.58 175.23 391.03 200.57C353.47 225.91 318.52 254.75 286.6 286.67C254.68 318.59 225.84 353.54 200.5 391.1C175.16 428.65 153.3 468.78 135.47 511.01C117.63 553.25 103.79 597.64 94.4 643.64C85.02 689.63 80.12 737.24 80.12 786.06C80.12 834.88 85.02 882.5 94.4 928.48C103.79 974.48 117.63 1018.87 135.47 1061.12C153.3 1103.35 175.16 1143.47 200.5 1181.03C225.84 1218.58 254.68 1253.54 286.6 1285.46C318.52 1317.38 353.47 1346.22 391.03 1371.55C428.58 1396.89 468.71 1418.75 510.93 1436.59C553.18 1454.43 597.57 1468.27 643.57 1477.59C689.57 1486.98 737.19 1491.88 786 1491.88C834.81 1491.88 882.43 1486.98 928.43 1477.59C974.42 1468.2 1018.81 1454.36 1061.05 1436.52C1103.29 1418.69 1143.41 1396.84 1180.96 1371.49C1218.51 1346.15 1253.48 1317.31 1285.39 1285.4C1317.31 1253.48 1346.15 1218.51 1371.49 1180.96C1396.84 1143.42 1418.69 1103.29 1436.52 1061.05C1454.36 1018.81 1468.2 974.43 1477.59 928.43C1486.98 882.44 1491.87 834.81 1491.87 786C1491.87 737.19 1486.98 689.57 1477.59 643.57C1468.2 597.58 1454.36 553.2 1436.52 510.95C1418.69 468.71 1396.84 428.59 1371.49 391.04C1346.15 353.49 1317.31 318.52 1285.39 286.61C1253.48 254.69 1218.51 225.85 1180.96 200.51C1143.41 175.17 1103.29 153.32 1061.05 135.48C1018.81 117.64 974.42 103.8 928.43 94.41C882.43 85.03 834.81 80.13 786 80.13L785.99 80.19ZM1396.81 886.15L1396.81 956.24L1176.53 956.24L1176.53 610.79L1256.63 610.79L1256.63 886.13L1396.81 886.13L1396.81 886.15ZM730.96 590.79L730.96 590.79L730.94 590.78L730.96 590.79ZM730.96 590.79L786.03 635.81L600.79 775.97L640.83 811.03L826.08 665.87L881.13 710.9L786.03 786L695.88 856.1L735.95 891.17L921.19 740.94L921.19 610.79L1001.32 610.79L1001.32 886.13L1146.47 886.13L1146.47 956.23L926.22 956.23L926.22 826.04L730.95 976.23L535.69 826.04C520.67 901.14 450.59 956.23 370.49 956.23L230.32 956.23L230.32 610.79L370.49 610.79C450.6 610.79 515.7 665.87 535.72 740.98L730.96 590.79ZM305.43 680.85L305.43 891.13L365.51 891.13C379.28 891.13 392.09 888.02 403.59 882.47C415.09 876.92 425.25 868.93 433.7 859.23C442.15 849.53 448.87 838.11 453.48 825.67C458.1 813.23 460.61 799.78 460.61 786.01C460.61 770.99 457.81 756.89 452.8 744.22C447.8 731.55 440.58 720.3 431.82 710.91C423.06 701.53 412.77 694.03 401.5 688.87C390.24 683.7 378.03 680.85 365.51 680.85L305.43 680.85L305.43 680.85Z" />
</svg>